<svg viewBox="0 0 100 80" xmlns="http://www.w3.org/2000/svg"><path d="m18 4h64v40h-64z" fill="#6f7685"/><path d="m5 52h90v20h-90z" fill="#add6ed"/><path d="m38 54h24v16h-24z" fill="#e6f3fa"/><path d="m10 35h1v8h-1z" fill="#a5cce3"/><path d="m10.5 35a1.5 1.5 0 0 0 1.33-1.49 3.76 3.76 0 0 0 -1.31-2.51 3.76 3.76 0 0 0 -1.31 2.5 1.5 1.5 0 0 0 1.29 1.5z" fill="#a5cce3"/><path d="m10.08 36.71a1.48 1.48 0 0 0 .06-2 3.69 3.69 0 0 0 -2.56-1 3.74 3.74 0 0 0 .6 2.71 1.47 1.47 0 0 0 1.9.29z" fill="#7bbbe0"/><path d="m10.46 38a1.57 1.57 0 0 0 -1-1.85 4 4 0 0 0 -3 .39 3.93 3.93 0 0 0 2 2.21 1.58 1.58 0 0 0 2-.75z" fill="#add6ed"/><path d="m10.5 39.6a1.88 1.88 0 0 0 -1.86-1.66 4.69 4.69 0 0 0 -3.13 1.64 4.69 4.69 0 0 0 3.13 1.64 1.88 1.88 0 0 0 1.86-1.62z" fill="#7bbbe0"/><path d="m10.4 40.19a1.26 1.26 0 0 0 -1.64-.35 3.17 3.17 0 0 0 -1.26 2 3.13 3.13 0 0 0 2.36-.1 1.25 1.25 0 0 0 .54-1.55z" fill="#add6ed"/><path d="m10.92 36.71a1.48 1.48 0 0 1 -.06-2 3.69 3.69 0 0 1 2.56-1 3.74 3.74 0 0 1 -.6 2.71 1.47 1.47 0 0 1 -1.9.29z" fill="#add6ed"/><path d="m10.54 38a1.57 1.57 0 0 1 1-1.85 4 4 0 0 1 3 .39 3.93 3.93 0 0 1 -2 2.21 1.58 1.58 0 0 1 -2-.75z" fill="#7bbbe0"/><path d="m10.5 39.6a1.88 1.88 0 0 1 1.86-1.66 4.69 4.69 0 0 1 3.13 1.64 4.69 4.69 0 0 1 -3.13 1.64 1.88 1.88 0 0 1 -1.86-1.62z" fill="#add6ed"/><path d="m10.6 40.19a1.26 1.26 0 0 1 1.64-.35 3.17 3.17 0 0 1 1.26 2 3.13 3.13 0 0 1 -2.36-.1 1.25 1.25 0 0 1 -.54-1.55z" fill="#7bbbe0"/><path d="m15 44h-9l.89 7.12a1 1 0 0 0 1 .88h5.24a1 1 0 0 0 1-.88z" fill="#ffccd1"/><path d="m15 44h-9v-1a1 1 0 0 1 1-1h7a1 1 0 0 1 1 1z" fill="#fab4bd"/><path d="m89 35h1v8h-1z" fill="#a5cce3"/><path d="m89.5 35a1.5 1.5 0 0 0 1.33-1.49 3.76 3.76 0 0 0 -1.31-2.51 3.76 3.76 0 0 0 -1.31 2.5 1.5 1.5 0 0 0 1.29 1.5z" fill="#a5cce3"/><path d="m89.08 36.71a1.48 1.48 0 0 0 .06-2 3.69 3.69 0 0 0 -2.56-1 3.74 3.74 0 0 0 .6 2.71 1.47 1.47 0 0 0 1.9.29z" fill="#7bbbe0"/><path d="m89.46 38a1.57 1.57 0 0 0 -1-1.85 4 4 0 0 0 -3 .39 3.93 3.93 0 0 0 2 2.21 1.58 1.58 0 0 0 2-.75z" fill="#add6ed"/><path d="m89.5 39.6a1.88 1.88 0 0 0 -1.86-1.66 4.69 4.69 0 0 0 -3.13 1.64 4.69 4.69 0 0 0 3.13 1.64 1.88 1.88 0 0 0 1.86-1.62z" fill="#7bbbe0"/><path d="m89.4 40.19a1.26 1.26 0 0 0 -1.64-.35 3.17 3.17 0 0 0 -1.26 2 3.13 3.13 0 0 0 2.36-.1 1.25 1.25 0 0 0 .54-1.55z" fill="#add6ed"/><path d="m89.92 36.71a1.48 1.48 0 0 1 -.06-2 3.69 3.69 0 0 1 2.56-1 3.74 3.74 0 0 1 -.6 2.71 1.47 1.47 0 0 1 -1.9.29z" fill="#add6ed"/><path d="m89.54 38a1.57 1.57 0 0 1 1-1.85 4 4 0 0 1 3 .39 3.93 3.93 0 0 1 -2 2.21 1.58 1.58 0 0 1 -2-.75z" fill="#7bbbe0"/><path d="m89.5 39.6a1.88 1.88 0 0 1 1.86-1.66 4.69 4.69 0 0 1 3.13 1.64 4.69 4.69 0 0 1 -3.13 1.64 1.88 1.88 0 0 1 -1.86-1.62z" fill="#add6ed"/><path d="m89.6 40.19a1.26 1.26 0 0 1 1.64-.35 3.17 3.17 0 0 1 1.26 2 3.13 3.13 0 0 1 -2.36-.1 1.25 1.25 0 0 1 -.54-1.55z" fill="#7bbbe0"/><path d="m94 44h-9l.89 7.12a1 1 0 0 0 1 .88h5.24a1 1 0 0 0 1-.88z" fill="#ffccd1"/><path d="m94 44h-9v-1a1 1 0 0 1 1-1h7a1 1 0 0 1 1 1z" fill="#fab4bd"/><path d="m38 61h24v2h-24z" fill="#add6ed"/><path d="m41 57h18a1 1 0 0 1 1 1v3a0 0 0 0 1 0 0h-20a0 0 0 0 1 0 0v-3a1 1 0 0 1 1-1z" fill="#6f7685"/><path d="m46 68h8a1 1 0 0 1 1 1v1a0 0 0 0 1 0 0h-10a0 0 0 0 1 0 0v-1a1 1 0 0 1 1-1z" fill="#6f7685"/><path d="m64 54h29v16h-29z" fill="#fff"/><path d="m7 54h29v16h-29z" fill="#fff"/><path d="m20.5 6.5h59v35h-59z" fill="#e6f3fa"/><path d="m87 72h2l-.5 4h-1z" fill="#6f7685" fill-rule="evenodd"/><path d="m11 72h2l-.5 4h-1z" fill="#6f7685" fill-rule="evenodd"/><circle cx="33" cy="62" fill="#7bbbe0" r="1"/><circle cx="67" cy="62" fill="#7bbbe0" r="1"/><path d="m53.94 41.5h-18.66s.89-3.29 5.36-6.55l6.62 1 6.48 1 .15 3.35z" fill="#1c73ad"/><path d="m37.34 41.5a13.77 13.77 0 0 1 5.28-5.7l.53.86s-3 2.58-3.8 4.84z" fill="#e6f3fa"/><path d="m45 21.19a10.48 10.48 0 0 1 -3.39 4.5 21.82 21.82 0 0 1 -4.25 2c-3.74 1.36-8.43 2.22-9.09-.54-1-4.13 7.11-7.06 8.26-8a32.77 32.77 0 0 0 2.77-2.65l1.89 1.54z" fill="#add6ed"/><path d="m59.21 27.35c-.63 1.22-2.36 9.48-9.25 11.81 0 0-8.23 2-9.32-4.21a28.5 28.5 0 0 0 1.29-5.74 10 10 0 0 0 0-2.05c0-.33-.07-.67-.08-1-.11-2.65.57-5.17-.11-6.59-.77-1.6-2.49-2.94.38-4.6s6.32.07 10.72 2c3 1.31 9 1.85 10 3.32s-2.99 5.85-3.63 7.06z" fill="#4799cc"/><path d="m47.14 35a3 3 0 0 1 -1.51-1.2 2.91 2.91 0 0 1 -.4-2l.07-.48 1.94.68v.27a.77.77 0 0 0 .59.77c.7.24 1-.18 1.16-.69l.11-.35a5.26 5.26 0 0 1 -1.23-.26h-.06a2.34 2.34 0 0 1 -1.39-1.26 2.87 2.87 0 0 1 0-2.33l.28-.8a2.83 2.83 0 0 1 1.6-1.82 2.86 2.86 0 0 1 2.15-.09 2.92 2.92 0 0 1 1.68 1.42 3.14 3.14 0 0 1 .12 2.41l-1.32 3.83a3.09 3.09 0 0 1 -1.59 1.82 3 3 0 0 1 -2.18.08zm1.23-6.22c-.29.85.07 1.11.49 1.26.71.23 1-.19 1.16-.69l.25-.7c.29-.84-.08-1.11-.49-1.27-.71-.23-1 .2-1.16.69z" fill="#fff"/><path d="m57.17 25.89s4.51-.73 6.13-.26 2-1.07 2-2.68-1.45-3.44-4.51-3.78-3.62 6.72-3.62 6.72z" fill="#7bbbe0"/><path d="m42.11 19.15-2.57-3.38a2.27 2.27 0 0 0 -.4.73c-.37.52-1.43 2.54 2.5 4.31l.11-.69.18.09z" fill="#505766"/><path d="m47.76 15a5.32 5.32 0 0 0 -5.78-1c-3.83 1.44-3 4.12-.47 5.22 3.03 1.24 6.25-4.22 6.25-4.22z" fill="#7bbbe0"/><path d="m38.48 19.65a9.74 9.74 0 0 0 1.86-.71c.39-.3 1.82-1.39 2.19-1.58s1.37-.36 1.69-.52.7 0 1.18 0a3.92 3.92 0 0 0 1.09-.22s1.18.18 1.32.48-2.93 2.7-3.11 2.9a15.59 15.59 0 0 1 -3.81 1.26 1.55 1.55 0 0 0 -1.18.67z" fill="#ffccd1"/><path d="m42 27.52c.58.26 3.5.56 6-3.25a5.6 5.6 0 0 0 -.19-7 6.24 6.24 0 0 0 -6.08 3.39 7 7 0 0 0 .27 6.86z" fill="#eb8193"/><path d="m58.19 17.86a4.33 4.33 0 0 0 -.52-.24 50.09 50.09 0 0 0 -7-1.85l-.67-.14-.39-.08a2.3 2.3 0 0 0 -.51 2.53c.55 1.65 2.11 5.19 2.88 5.34s6.32-4 6.72-5c.03-.19-.15-.37-.51-.56z" fill="#505766"/><path d="m57.67 17.62c-1.19 1.8-5 4.49-5.75 3.92s-2-3.77-1.9-4.79a1.34 1.34 0 0 1 .63-1 4.33 4.33 0 0 0 .86.07 17.07 17.07 0 0 1 4.08.16 3.64 3.64 0 0 1 1.54 1.21 1.8 1.8 0 0 0 .54.43z" fill="#4799cc"/><path d="m53.94 16.86 2.29.09-1.38-.88z" fill="#505766"/><path d="m57.67 17.62a9.53 9.53 0 0 1 -1.67 1.79c-1.56 1.35-3.54 2.52-4.09 2.13-.73-.52-1.66-2.8-1.87-4.13a2.59 2.59 0 0 1 0-.66 1.34 1.34 0 0 1 .63-1 4.33 4.33 0 0 0 .86.07c.62 1.07 2.4 3.32 5.62 1.37a1.8 1.8 0 0 0 .52.43z" fill="#7bbbe0"/><path d="m39.8 22.11a6.41 6.41 0 0 1 -1.12 1c-.57.43-1.56 1.69-2.77 2.92a14.48 14.48 0 0 1 -2.4 2.06c-2.23 1.44-4.24 1.38-4.57.51-1.53-4 2.93-6.43 4.39-6.89l.36-.12c1.61-.52 4.65-1.59 4.65-1.59z" fill="#a5cbe3"/><path d="m41.75 19.92s.89.55 1.17.16-.57-.64-.67-.87.55-.54.55-.54 1.12-.12 1.39.08a.7.7 0 0 0 .82-.08c0-.12-.41-.69-.73-.83s.6-.27 1.08-.23 1.09.48 1.27.39.16-.48 0-.64a1.67 1.67 0 0 0 -1.14-.36 4.15 4.15 0 0 0 -3.74 2.92z" fill="#ffccd1"/><path d="m58.66 12.84s0 1.45 0 1.88a2.78 2.78 0 0 1 0 .66 3.57 3.57 0 0 1 -.32 1c-.27.53.22 1.73-2.38.61s-2.48-1.99-2.43-2.39-.29-4.15 2.09-4.19a3.26 3.26 0 0 1 3.04 2.43z" fill="#ffccd1"/><path d="m59.29 12.82c-.49 0-2 0-2.39 0s-1.43-.14-1.43.68c0 0 .84 1.47.51 2s-1.43 1.48-2 1.34-2.78-1.53-2.74-2.08 0-.4 0-.4a5.54 5.54 0 0 1 .23-3.44 5 5 0 0 1 2.15-2 3.4 3.4 0 0 1 .67-.24 4.23 4.23 0 0 1 4.89 1.8v.06a5 5 0 0 1 .51 1.58c.01.62.09.74-.4.7z" fill="#1c73ad"/><path d="m54 12.11.72 1 .46-.35-.68-.9a.35.35 0 0 0 -.5.25z" fill="#fff"/><path d="m60.26 14.56-.14-.94a.64.64 0 0 0 .17-.16.26.26 0 0 0 0-.25c0-.12-.17-.2-.39-.25h-.25v-.3h-.29v.29h-.72l-2.31.05c0-.15 0-.27 0-.36l2.36-.06v-.3s-2.64.08-3 .08a.83.83 0 0 0 -.73.4l-1.09 1 .09.11c.17.21.76.92 1.05 1l.26.08a3 3 0 0 0 .88.23 1.85 1.85 0 0 0 .83 1.64 7.19 7.19 0 0 0 2.88.7h.1v-.09c0-.05.51-1.16.61-1.46a2.15 2.15 0 0 0 .07-.75c.09-.22-.25-.56-.38-.66zm-.49-1.33.28 1.94a2.94 2.94 0 0 1 -.37 0v-1.9zm-1.09 0h.7v1.88c-.89-.16-2.2-.49-3-.71 0-.39 0-.77 0-1.09zm-3-.57h.32c0 .26 0 .87.06 1.53-.19-.3-.39-.56-.39-.57l-.5-.62c.07-.09.24-.35.46-.35zm.46 2.25a3 3 0 0 1 -.78-.21l-.36-.1a3.66 3.66 0 0 1 -.81-.79l.67-.63.56.6a5.51 5.51 0 0 1 .64 1v.09zm1 1.71a1.61 1.61 0 0 1 -.73-1.55.36.36 0 0 0 0-.29v-.08c.46.13 1.84.49 2.84.67 0 .12 0 .29-.08.56a3 3 0 0 0 .17 1.27 5.28 5.28 0 0 1 -.62-.08 3.6 3.6 0 0 1 -1.6-.51zm2.6.62h-.08a3 3 0 0 1 -.21-1.24c0-.26.06-.44.08-.55a5.19 5.19 0 0 0 .58.06h.08.15a1.74 1.74 0 0 1 -.06.45c-.09.17-.44 1.04-.56 1.27z" fill="#add6ed"/><path d="m58.34 12.57s1.45.06 1.76.12c0 0 .12-.9-.48-1s-1.3.06-1.28.88z" fill="#7bbbe0"/><path d="m39.71 21.89a6.55 6.55 0 0 1 -1 1.21c-.52.49-1.56 1.69-2.77 2.92l-2.22-4.44c1.61-.51 4.79-1.93 4.79-1.93z" fill="#ffccd1"/><path d="m64 25.84a40.09 40.09 0 0 1 -1.66 9.09c-.85 2.8-2 5.09-3.14 5.07a8 8 0 0 1 -3.25-1.22 35.41 35.41 0 0 1 -4.35-3 15.1 15.1 0 0 1 -1.52-1.32l-2.88-3.31 1.8-2.15a34.79 34.79 0 0 0 4.57 2.25c1.26.54 2.29.95 2.35 1 .75-3.25 1.75-6.25 1.75-6.25.79-.61 3.29-.88 4.89-.74.83.11 1.44.29 1.44.58z" fill="#add6ed"/><path d="m49 29-1.8 2.15a13.1 13.1 0 0 1 -1.41-1.66l-.06-.11c-.27-.57-.89-1.51-.7-2.22s-.33-.7-.62-.94-.92-.17-.84-.53.43-.24 1 0a5.53 5.53 0 0 0 1.19.31 2.9 2.9 0 0 0 -.38-1c-.24-.32-1.24-1.21-1.06-1.51s.54 0 .76.13.78.75.78.75l.27.14h.22a6.12 6.12 0 0 0 -.54-1.13c-.22-.28-.89-1-.7-1.25s.7.33.7.33a5.25 5.25 0 0 1 .73.48l.08.11a9.26 9.26 0 0 0 -.16-1c-.08-.32-.14-.87.08-.86s.57.76.66 1.06a4.32 4.32 0 0 1 .26 1.35 16.3 16.3 0 0 0 .21 2.06c.06.34 0 1.89 0 1.89z" fill="#ffccd1"/><path d="m49 29-1.8 2.15a13.1 13.1 0 0 1 -1.41-1.66l1.92-1.87z" fill="#f29ba7"/><path d="m53.64 31.24-2.06 4.56a15.1 15.1 0 0 1 -1.52-1.32l-2.86-3.33 1.8-2.15a33.12 33.12 0 0 0 4.64 2.24z" fill="#ffccd1"/><path d="m64.67 24.45c-2.82-1.12-5.6.22-7 1.09a4.44 4.44 0 0 0 -.9.64l.88-.14a14.53 14.53 0 0 1 4.46-.57 6.27 6.27 0 0 1 1.85.37s.4.08.73-.45c.38-.07.39-.75.39-.75z" fill="#505766"/><path d="m56 19.41c-1.56 1.35-3.54 2.52-4.09 2.13-.73-.52-1.66-2.8-1.87-4.13a6.39 6.39 0 0 0 5.96 2z" fill="#4799cc"/></svg>